<svg xmlns="http://www.w3.org/2000/svg" xmlns:xlink="http://www.w3.org/1999/xlink" viewBox="0 0 92.77 249.68"><defs><style>.cls-1{fill:url(#linear-gradient);}.cls-2{fill:#a6a8ac;}.cls-3{fill:url(#linear-gradient-2);}.cls-4{fill:url(#linear-gradient-3);}.cls-5{fill:url(#linear-gradient-4);}.cls-6{fill:url(#linear-gradient-5);}.cls-7{fill:url(#linear-gradient-6);}</style><linearGradient id="linear-gradient" x1="-120.96" y1="1045.72" x2="-119.08" y2="1045.72" gradientTransform="matrix(35.1, 0, 0, -35.1, 4260.72, 36852.39)" gradientUnits="userSpaceOnUse"><stop offset="0" stop-color="#cbccce"/><stop offset="0.66" stop-color="#ebeceb"/><stop offset="1" stop-color="#fff"/></linearGradient><linearGradient id="linear-gradient-2" x1="-121.51" y1="1052.37" x2="-119.63" y2="1052.37" gradientTransform="matrix(27.76, 0, 0, -27.76, 3393.31, 29254.68)" xlink:href="#linear-gradient"/><linearGradient id="linear-gradient-3" x1="-120.49" y1="1040.17" x2="-118.6" y2="1040.17" gradientTransform="matrix(46.63, 0, 0, -46.63, 5620.68, 48743.15)" xlink:href="#linear-gradient"/><linearGradient id="linear-gradient-4" x1="-120.41" y1="1039.84" x2="-118.53" y2="1039.84" gradientTransform="matrix(49.03, 0, 0, -49.03, 5904.47, 51195.14)" xlink:href="#linear-gradient"/><linearGradient id="linear-gradient-5" x1="-120.66" y1="1042.41" x2="-118.78" y2="1042.41" gradientTransform="matrix(41.75, 0, 0, -41.75, 5044.48, 43695.24)" xlink:href="#linear-gradient"/><linearGradient id="linear-gradient-6" x1="-121.35" y1="1050.11" x2="-119.47" y2="1050.11" gradientTransform="matrix(29.25, 0, 0, -29.25, 3570.74, 30821.09)" xlink:href="#linear-gradient"/></defs><g id="Layer_2" data-name="Layer 2"><g id="Vector_Elements" data-name="Vector Elements"><path class="cls-1" d="M14.32,173.05c7.27-14.73,16.9-36.12,17.71-53.4H62.34c.82,17.42,11.53,39.82,18.06,53.4Z"/><path class="cls-2" d="M62.12,119.89C63,137.17,73.5,159.25,80,172.82H14.7c7.23-14.68,16.68-35.78,17.56-52.93H62.12m.45-.47H31.81c-.74,17.3-10.45,38.86-17.87,53.87H80.77C73.76,158.71,63.3,136.72,62.57,119.42Z"/><path class="cls-3" d="M29.49,87.48a4.58,4.58,0,0,1,0-9.15h.6l-.43-.41c-7.8-7.31-10.49-21.43-7.52-28.26A71.84,71.84,0,0,1,29,38c1-1.51,2.05-3,3-4.53l5.68,12.56s.52,2.45,2.74,2.45A1.68,1.68,0,0,0,42,47.81c.5-.88-.21-2.21-.24-2.26L34.46,29.46c1.13-1.7,2.89-4.26,4.71-6.93,1.66-2.41,3.37-4.91,4.73-6.93l.15-.22-.24-.12c-2.42-1.23-3.64-3.73-3.64-7.43,0-4.68,2.65-7.59,6.91-7.59a7.33,7.33,0,0,1,7.74,7.59,7.92,7.92,0,0,1-4.15,7.43l-.24.12.15.22c2.68,4,5,7.38,7.16,10.43C64,35,68.05,40.86,71.89,49.66c3.1,7.11.69,21-7.06,28.26l-.44.41H65a4.58,4.58,0,0,1,0,9.15Z"/><path class="cls-2" d="M47.08.47a7.12,7.12,0,0,1,7.51,7.36,7.7,7.7,0,0,1-4,7.22l-.47.24.3.44c2.68,4,5.06,7.41,7.16,10.43,6.2,8.92,10.3,14.82,14.13,23.6,3.07,7,.67,20.79-7,28l-.87.81H65a4.35,4.35,0,0,1,0,8.69H29.49a4.35,4.35,0,0,1,0-8.69h1.2l-.87-.81c-7.74-7.25-10.41-21.24-7.46-28a71.42,71.42,0,0,1,6.86-11.61C30.14,36.79,31.1,35.39,32,34L37.48,46.1a3.2,3.2,0,0,0,3,2.64h.1a1.85,1.85,0,0,0,1.67-.82A2.89,2.89,0,0,0,42,45.46l-7.28-16c1.13-1.69,2.85-4.2,4.64-6.81,1.65-2.42,3.37-4.92,4.72-6.94l.3-.44-.47-.24c-2.34-1.18-3.52-3.61-3.52-7.22,0-4.61,2.5-7.36,6.68-7.36m0-.47c-4.5,0-7.15,3.08-7.15,7.83,0,3.41,1,6.25,3.77,7.64-2.88,4.28-7.38,10.77-9.51,14l7.39,16.22s1.38,2.53-1,2.61h-.09c-2.07,0-2.53-2.32-2.53-2.32L32.07,33c-3.37,5.39-7.43,10.33-10.16,16.58-3.19,7.34,0,21.39,7.57,28.52a4.82,4.82,0,0,0,0,9.63H65a4.82,4.82,0,0,0,0-9.63C72.6,71,75.31,56.91,72.11,49.57,67,37.75,61.34,31.17,50.78,15.47a8.21,8.21,0,0,0,4.28-7.64C55.06,3.08,51.59,0,47.08,0Z"/><path class="cls-4" d="M2.32,249.44a29.46,29.46,0,0,1,.75-6.73A13.24,13.24,0,0,1,6,238.27l80.49.07a14.75,14.75,0,0,1,2.77,4.52,39,39,0,0,1,.84,6.58Z"/><path class="cls-2" d="M86.38,238.57A14.56,14.56,0,0,1,89,242.93a36.53,36.53,0,0,1,.81,6.28H2.56a29,29,0,0,1,.73-6.43A12.8,12.8,0,0,1,6,238.57H86.38m.21-.47H5.84a13.39,13.39,0,0,0-3,4.54,32,32,0,0,0-.77,7H90.35a40.79,40.79,0,0,0-.86-6.88A15.21,15.21,0,0,0,86.59,238.1Z"/><path class="cls-5" d="M6.48,236.25c-2.12-3.65-6.8-13.08-6.19-24.2.39-7.2,4.24-14.38,7.63-20.72.94-1.75,1.84-3.42,2.61-5H82.72l1.3,2.54c3.79,7.34,8.09,15.66,8.48,24,.35,7.42-1.86,15.28-6.56,23.35Z"/><path class="cls-2" d="M82.57,186.56c.41.79.82,1.6,1.24,2.42,3.78,7.31,8.07,15.61,8.46,23.93.34,7.34-1.83,15.11-6.46,23.11H6.62c-2.14-3.72-6.69-13-6.1-24,.39-7.15,4.22-14.3,7.61-20.62.92-1.71,1.79-3.33,2.55-4.88H82.57m.29-.47H10.38C6.87,193.33.56,202.7.05,212s2.74,18.37,6.3,24.46H86.08c3.56-6.09,7.09-14.41,6.66-23.6C92.29,203.43,86.9,194.05,82.86,186.09Z"/><path class="cls-6" d="M10.72,184.25a3.92,3.92,0,0,1-2-1.52,4.12,4.12,0,0,1-.89-3.38A5,5,0,0,1,12.17,175H81.69a5,5,0,0,1,4.56,4.21,4.16,4.16,0,0,1-.92,3.35,4.33,4.33,0,0,1-2.21,1.66H10.72Z"/><path class="cls-2" d="M81.69,175.27a4.78,4.78,0,0,1,4.33,4,3.9,3.9,0,0,1-.88,3.16,4.27,4.27,0,0,1-2,1.56H10.75a3.69,3.69,0,0,1-1.86-1.42,3.92,3.92,0,0,1-.85-3.2,4.79,4.79,0,0,1,4.13-4.12H81.69m0-.47H12.17a5.25,5.25,0,0,0-4.59,4.51,4.77,4.77,0,0,0,3.14,5.17H83.14c.93,0,3.93-2.38,3.34-5.28A5.28,5.28,0,0,0,81.69,174.8Z"/><path class="cls-7" d="M24.61,117.33c-.52-.06-4.61-2.36-4.25-6a7.34,7.34,0,0,1,5.17-6.27h4.13V89.38H64.71v15.67h5.74a7.82,7.82,0,0,1,4.93,6.6c.37,3.79-3.68,5.64-4,5.68H24.61Z"/><path class="cls-2" d="M64.47,89.62v15.67h6a7.59,7.59,0,0,1,4.72,6.38c.35,3.55-3.48,5.37-3.78,5.42H24.66c-.55-.1-4.41-2.36-4.07-5.76a7,7,0,0,1,4.94-6H29.9V89.62H64.47m.48-.47H29.43v15.67h-3.9a7.49,7.49,0,0,0-5.41,6.48c-.38,3.81,3.88,6.2,4.48,6.26H71.38c.6-.06,4.61-2.12,4.24-5.93a8,8,0,0,0-5.17-6.81H65Z"/><path class="cls-1" d="M14.32,173.05c7.27-14.73,16.9-36.12,17.71-53.4H62.34c.82,17.42,11.53,39.82,18.06,53.4Z"/><path class="cls-2" d="M62.12,119.89C63,137.17,73.5,159.25,80,172.82H14.7c7.23-14.68,16.68-35.78,17.56-52.93H62.12m.45-.47H31.81c-.74,17.3-10.45,38.86-17.87,53.87H80.77C73.76,158.71,63.3,136.72,62.57,119.42Z"/><path class="cls-4" d="M2.32,249.44a29.46,29.46,0,0,1,.75-6.73A13.24,13.24,0,0,1,6,238.27l80.49.07a14.75,14.75,0,0,1,2.77,4.52,39,39,0,0,1,.84,6.58Z"/><path class="cls-2" d="M86.38,238.57A14.56,14.56,0,0,1,89,242.93a36.53,36.53,0,0,1,.81,6.28H2.56a29,29,0,0,1,.73-6.43A12.8,12.8,0,0,1,6,238.57H86.38m.21-.47H5.84a13.39,13.39,0,0,0-3,4.54,32,32,0,0,0-.77,7H90.35a40.79,40.79,0,0,0-.86-6.88A15.21,15.21,0,0,0,86.59,238.1Z"/><path class="cls-5" d="M6.48,236.25c-2.12-3.65-6.8-13.08-6.19-24.2.39-7.2,4.24-14.38,7.63-20.72.94-1.75,1.84-3.42,2.61-5H82.72l1.3,2.54c3.79,7.34,8.09,15.66,8.48,24,.35,7.42-1.86,15.28-6.56,23.35Z"/><path class="cls-2" d="M82.57,186.56c.41.79.82,1.6,1.24,2.42,3.78,7.31,8.07,15.61,8.46,23.93.34,7.34-1.83,15.11-6.46,23.11H6.62c-2.14-3.72-6.69-13-6.1-24,.39-7.15,4.22-14.3,7.61-20.62.92-1.71,1.79-3.33,2.55-4.88H82.57m.29-.47H10.38C6.87,193.33.56,202.7.05,212s2.74,18.37,6.3,24.46H86.08c3.56-6.09,7.09-14.41,6.66-23.6C92.29,203.43,86.9,194.05,82.86,186.09Z"/><path class="cls-6" d="M10.72,184.25a3.92,3.92,0,0,1-2-1.52,4.12,4.12,0,0,1-.89-3.38A5,5,0,0,1,12.17,175H81.69a5,5,0,0,1,4.56,4.21,4.16,4.16,0,0,1-.92,3.35,4.33,4.33,0,0,1-2.21,1.66H10.72Z"/><path class="cls-2" d="M81.69,175.27a4.78,4.78,0,0,1,4.33,4,3.9,3.9,0,0,1-.88,3.16,4.27,4.27,0,0,1-2,1.56H10.75a3.69,3.69,0,0,1-1.86-1.42,3.92,3.92,0,0,1-.85-3.2,4.79,4.79,0,0,1,4.13-4.12H81.69m0-.47H12.17a5.25,5.25,0,0,0-4.59,4.51,4.77,4.77,0,0,0,3.14,5.17H83.14c.93,0,3.93-2.38,3.34-5.28A5.28,5.28,0,0,0,81.69,174.8Z"/><path class="cls-7" d="M24.61,117.33c-.52-.06-4.61-2.36-4.25-6a7.34,7.34,0,0,1,5.17-6.27h4.13V89.38H64.71v15.67h5.74a7.82,7.82,0,0,1,4.93,6.6c.37,3.79-3.68,5.64-4,5.68H24.61Z"/><path class="cls-2" d="M64.47,89.62v15.67h6a7.59,7.59,0,0,1,4.72,6.38c.35,3.55-3.48,5.37-3.78,5.42H24.66c-.55-.1-4.41-2.36-4.07-5.76a7,7,0,0,1,4.94-6H29.9V89.62H64.47m.48-.47H29.43v15.67h-3.9a7.49,7.49,0,0,0-5.41,6.48c-.38,3.81,3.88,6.2,4.48,6.26H71.38c.6-.06,4.61-2.12,4.24-5.93a8,8,0,0,0-5.17-6.81H65Z"/></g></g></svg>