<svg xmlns="http://www.w3.org/2000/svg" xmlns:xlink="http://www.w3.org/1999/xlink" viewBox="0 0 112.09 219.95"><defs><style>.cls-1{fill:url(#linear-gradient);}.cls-2{fill:url(#linear-gradient-2);}.cls-3{fill:url(#linear-gradient-3);}.cls-4{fill:url(#linear-gradient-4);}.cls-5{fill:url(#linear-gradient-5);}.cls-6{fill:url(#linear-gradient-6);}.cls-7{fill:url(#linear-gradient-7);}.cls-8{fill:url(#linear-gradient-8);}</style><linearGradient id="linear-gradient" x1="0.26" y1="74.79" x2="111.87" y2="74.79" gradientUnits="userSpaceOnUse"><stop offset="0" stop-color="#231f20"/><stop offset="0.13" stop-color="#231f20"/><stop offset="0.17" stop-color="#252122"/><stop offset="1" stop-color="#49494b"/></linearGradient><linearGradient id="linear-gradient-2" x1="0.06" y1="74.76" x2="112.09" y2="74.76" xlink:href="#linear-gradient"/><linearGradient id="linear-gradient-3" x1="1.38" y1="214.61" x2="93.26" y2="214.61" xlink:href="#linear-gradient"/><linearGradient id="linear-gradient-4" x1="1.14" y1="214.64" x2="93.51" y2="214.64" xlink:href="#linear-gradient"/><linearGradient id="linear-gradient-5" x1="0.24" y1="184.59" x2="94.4" y2="184.59" xlink:href="#linear-gradient"/><linearGradient id="linear-gradient-6" x1="0" y1="184.59" x2="94.63" y2="184.59" xlink:href="#linear-gradient"/><linearGradient id="linear-gradient-7" x1="8.17" y1="155.7" x2="88.12" y2="155.7" xlink:href="#linear-gradient"/><linearGradient id="linear-gradient-8" x1="7.93" y1="155.7" x2="88.36" y2="155.7" xlink:href="#linear-gradient"/></defs><g id="Layer_2" data-name="Layer 2"><g id="Vector_Elements" data-name="Vector Elements"><path class="cls-1" d="M13.18,149.28C-2.21,128.26-9.91,40.92,25.57,14.44c8.28-6.18,19.79-9.87,30.8-9.87A38.24,38.24,0,0,1,67.8,6.18l.15,0,.1-.11A37.85,37.85,0,0,1,74.46.3c5.4,4.71,4.2,7.56,3.05,10.31a18.08,18.08,0,0,0-.67,1.76l-.06.19.18.09c1.77.93,6.2,3.87,9.12,11.1,3.16,7.79,12.75,19.42,20.12,24.4,8.06,5.44,6,9.47,3.13,15a42.57,42.57,0,0,1-7.53,10.29,24.94,24.94,0,0,1-4.23-2.83A19.13,19.13,0,0,0,84.39,66a42.39,42.39,0,0,0-11.07,1.65,17.11,17.11,0,0,1-4.46.65C58.77,68.32,58.06,56.9,58,55.6,58,54,56.9,53.06,55.94,53.06s-2.08.84-2.14,3.22c-.63,23.38,16.79,48.28,33.28,61.56l-3.94,31.44Z"/><path class="cls-2" d="M74.45.6c5.11,4.52,4,7.15,2.84,9.92-.24.58-.49,1.18-.67,1.78l-.12.38.35.18c1.74.91,6.12,3.82,9,11,3.16,7.83,12.79,19.51,20.2,24.51,7.88,5.33,5.86,9.28,3.05,14.74a42.44,42.44,0,0,1-7.36,10.11,25.31,25.31,0,0,1-4.05-2.72A20.52,20.52,0,0,0,91.87,67a21,21,0,0,0-7.48-1.22,42.79,42.79,0,0,0-11.13,1.66,16.75,16.75,0,0,1-4.4.65c-9.87,0-10.57-11.22-10.61-12.5-.07-1.8-1.24-2.77-2.31-2.77s-2.31.91-2.38,3.46c-.62,23.41,16.77,48.32,33.27,61.66L82.93,149H13.3C-2,127.9-9.62,41,25.71,14.63,34,8.48,45.41,4.81,56.37,4.81A38.16,38.16,0,0,1,67.73,6.4l.29.1.21-.24A36.84,36.84,0,0,1,74.45.6m0-.6a37.89,37.89,0,0,0-6.61,6,38.18,38.18,0,0,0-11.5-1.61c-10.14,0-21.91,3.17-30.94,9.91C-10.32,40.93-2.26,128.82,13.07,149.51H83.35l4-31.77c-16.44-13.2-33.92-38-33.3-61.45.06-2.09,1-3,1.91-3s1.78.86,1.84,2.32c.18,4.9,2.65,13,11.08,13a17.44,17.44,0,0,0,4.52-.66,42.49,42.49,0,0,1,11-1.65,20.61,20.61,0,0,1,7.31,1.19c4.82,1.85,5.76,4.1,10.14,6.33a42.08,42.08,0,0,0,7.7-10.48c3-5.79,4.84-9.9-3.21-15.34-7.08-4.78-16.75-16.19-20-24.29C83.81,17.48,80,14,77.07,12.44,78.1,9,81.33,5.9,74.48,0Z"/><path class="cls-3" d="M1.38,219.71a22.21,22.21,0,0,1,.85-6.14,12.39,12.39,0,0,1,3.35-4.06l83.63.05s2.4,2.23,3.11,4.16a28,28,0,0,1,.94,6Z"/><path class="cls-4" d="M89,209.8a12.91,12.91,0,0,1,3.06,4,26.6,26.6,0,0,1,.92,5.68H1.62a21.09,21.09,0,0,1,.83-5.82A11.71,11.71,0,0,1,5.6,209.8H89m.19-.47H5.43A12.65,12.65,0,0,0,2,213.49c-.86,2.16-.87,6.46-.87,6.46H93.51a30.22,30.22,0,0,0-1-6.31A14.07,14.07,0,0,0,89.22,209.33Z"/><path class="cls-5" d="M6.13,207.48C1.94,201.66-.23,193.38.32,185.3c.5-7.47,5.22-15.11,9-21.24l1.44-2.35H84.82C88.16,167,93.75,177.2,94.33,187a30.54,30.54,0,0,1-5.82,20.52Z"/><path class="cls-6" d="M84.69,162c3.33,5.29,8.84,15.38,9.41,25a30.35,30.35,0,0,1-5.71,20.26H6.26C2.14,201.47,0,193.3.55,185.32c.51-7.42,5.2-15,9-21.14L10.89,162h73.8m.26-.47H10.63c-4,6.64-10,15.25-10.54,23.81S2,202.12,6,207.71H88.63A30.93,30.93,0,0,0,94.57,187C94.05,178.28,89.58,168.78,85,161.48Z"/><path class="cls-7" d="M11,159.91a3.67,3.67,0,0,1-2-1.48,3.63,3.63,0,0,1-.7-3.07,4.77,4.77,0,0,1,4.4-3.87H83.61a4.75,4.75,0,0,1,4.4,3.86,3.61,3.61,0,0,1-.69,3.08,3.65,3.65,0,0,1-2.06,1.48H11Z"/><path class="cls-8" d="M83.61,151.72a4.54,4.54,0,0,1,4.18,3.7,3.39,3.39,0,0,1-.66,2.87,3.45,3.45,0,0,1-1.86,1.38H11a3.41,3.41,0,0,1-1.88-1.38,3.4,3.4,0,0,1-.66-2.88,4.53,4.53,0,0,1,4.17-3.69H83.61m0-.47H12.67A5,5,0,0,0,8,155.3a4.24,4.24,0,0,0,3,4.84H85.27a4.22,4.22,0,0,0,3-4.84A5,5,0,0,0,83.61,151.25Z"/><path class="cls-1" d="M13.18,149.28C-2.21,128.26-9.91,40.92,25.57,14.44c8.28-6.18,19.79-9.87,30.8-9.87A38.24,38.24,0,0,1,67.8,6.18l.15,0,.1-.11A37.85,37.85,0,0,1,74.46.3c5.4,4.71,4.2,7.56,3.05,10.31a18.08,18.08,0,0,0-.67,1.76l-.06.19.18.09c1.77.93,6.2,3.87,9.12,11.1,3.16,7.79,12.75,19.42,20.12,24.4,8.06,5.44,6,9.47,3.13,15a42.57,42.57,0,0,1-7.53,10.29,24.94,24.94,0,0,1-4.23-2.83A19.13,19.13,0,0,0,84.39,66a42.39,42.39,0,0,0-11.07,1.65,17.11,17.11,0,0,1-4.46.65C58.77,68.32,58.06,56.9,58,55.6,58,54,56.9,53.06,55.94,53.06s-2.08.84-2.14,3.22c-.63,23.38,16.79,48.28,33.28,61.56l-3.94,31.44Z"/><path class="cls-2" d="M74.45.6c5.11,4.52,4,7.15,2.84,9.92-.24.58-.49,1.18-.67,1.78l-.12.38.35.18c1.74.91,6.12,3.82,9,11,3.16,7.83,12.79,19.51,20.2,24.51,7.88,5.33,5.86,9.28,3.05,14.74a42.44,42.44,0,0,1-7.36,10.11,25.31,25.31,0,0,1-4.05-2.72A20.52,20.52,0,0,0,91.87,67a21,21,0,0,0-7.48-1.22,42.79,42.79,0,0,0-11.13,1.66,16.75,16.75,0,0,1-4.4.65c-9.87,0-10.57-11.22-10.61-12.5-.07-1.8-1.24-2.77-2.31-2.77s-2.31.91-2.38,3.46c-.62,23.41,16.77,48.32,33.27,61.66L82.93,149H13.3C-2,127.9-9.62,41,25.71,14.63,34,8.48,45.41,4.81,56.37,4.81A38.16,38.16,0,0,1,67.73,6.4l.29.1.21-.24A36.84,36.84,0,0,1,74.45.6m0-.6a37.89,37.89,0,0,0-6.61,6,38.18,38.18,0,0,0-11.5-1.61c-10.14,0-21.91,3.17-30.94,9.91C-10.32,40.93-2.26,128.82,13.07,149.51H83.35l4-31.77c-16.44-13.2-33.92-38-33.3-61.45.06-2.09,1-3,1.91-3s1.78.86,1.84,2.32c.18,4.9,2.65,13,11.08,13a17.44,17.44,0,0,0,4.52-.66,42.49,42.49,0,0,1,11-1.65,20.61,20.61,0,0,1,7.31,1.19c4.82,1.85,5.76,4.1,10.14,6.33a42.08,42.08,0,0,0,7.7-10.48c3-5.79,4.84-9.9-3.21-15.34-7.08-4.78-16.75-16.19-20-24.29C83.81,17.48,80,14,77.07,12.44,78.1,9,81.33,5.9,74.48,0Z"/><path class="cls-3" d="M1.38,219.71a22.21,22.21,0,0,1,.85-6.14,12.39,12.39,0,0,1,3.35-4.06l83.63.05s2.4,2.23,3.11,4.16a28,28,0,0,1,.94,6Z"/><path class="cls-4" d="M89,209.8a12.91,12.91,0,0,1,3.06,4,26.6,26.6,0,0,1,.92,5.68H1.62a21.09,21.09,0,0,1,.83-5.82A11.71,11.71,0,0,1,5.6,209.8H89m.19-.47H5.43A12.65,12.65,0,0,0,2,213.49c-.86,2.16-.87,6.46-.87,6.46H93.51a30.22,30.22,0,0,0-1-6.31A14.07,14.07,0,0,0,89.22,209.33Z"/><path class="cls-5" d="M6.13,207.48C1.94,201.66-.23,193.38.32,185.3c.5-7.47,5.22-15.11,9-21.24l1.44-2.35H84.82C88.16,167,93.75,177.2,94.33,187a30.54,30.54,0,0,1-5.82,20.52Z"/><path class="cls-6" d="M84.69,162c3.33,5.29,8.84,15.38,9.41,25a30.35,30.35,0,0,1-5.71,20.26H6.26C2.14,201.47,0,193.3.55,185.32c.51-7.42,5.2-15,9-21.14L10.89,162h73.8m.26-.47H10.63c-4,6.64-10,15.25-10.54,23.81S2,202.12,6,207.71H88.63A30.93,30.93,0,0,0,94.57,187C94.05,178.28,89.58,168.78,85,161.48Z"/><path class="cls-7" d="M11,159.91a3.67,3.67,0,0,1-2-1.48,3.63,3.63,0,0,1-.7-3.07,4.77,4.77,0,0,1,4.4-3.87H83.61a4.75,4.75,0,0,1,4.4,3.86,3.61,3.61,0,0,1-.69,3.08,3.65,3.65,0,0,1-2.06,1.48H11Z"/><path class="cls-8" d="M83.61,151.72a4.54,4.54,0,0,1,4.18,3.7,3.39,3.39,0,0,1-.66,2.87,3.45,3.45,0,0,1-1.86,1.38H11a3.41,3.41,0,0,1-1.88-1.38,3.4,3.4,0,0,1-.66-2.88,4.53,4.53,0,0,1,4.17-3.69H83.61m0-.47H12.67A5,5,0,0,0,8,155.3a4.24,4.24,0,0,0,3,4.84H85.27a4.22,4.22,0,0,0,3-4.84A5,5,0,0,0,83.61,151.25Z"/></g></g></svg>