<svg xmlns="http://www.w3.org/2000/svg" xmlns:xlink="http://www.w3.org/1999/xlink" viewBox="0 0 103.35 294.27"><defs><style>.cls-1{fill:url(#linear-gradient);}.cls-2{fill:#a6a8ac;}.cls-3{fill:url(#linear-gradient-2);}.cls-4{fill:url(#linear-gradient-3);}.cls-5{fill:url(#linear-gradient-4);}.cls-6{fill-rule:evenodd;fill:url(#linear-gradient-5);}.cls-7{fill:url(#linear-gradient-6);}</style><linearGradient id="linear-gradient" x1="146.7" y1="1083.16" x2="148.59" y2="1083.16" gradientTransform="matrix(53.4, 0, 0, -53.4, -7832.57, 58129.47)" gradientUnits="userSpaceOnUse"><stop offset="0" stop-color="#cbccce"/><stop offset="0.66" stop-color="#ebeceb"/><stop offset="1" stop-color="#fff"/></linearGradient><linearGradient id="linear-gradient-2" x1="146.79" y1="1083.14" x2="148.67" y2="1083.14" gradientTransform="matrix(54.65, 0, 0, -54.65, -8021.61, 59454.92)" xlink:href="#linear-gradient"/><linearGradient id="linear-gradient-3" x1="146.2" y1="1085.32" x2="148.08" y2="1085.32" gradientTransform="matrix(46.84, 0, 0, -46.84, -6839.99, 51068.84)" xlink:href="#linear-gradient"/><linearGradient id="linear-gradient-4" x1="145.57" y1="1087.89" x2="147.45" y2="1087.89" gradientTransform="matrix(40.69, 0, 0, -40.69, -5909.81, 44451.72)" xlink:href="#linear-gradient"/><linearGradient id="linear-gradient-5" x1="140.01" y1="1110.81" x2="141.89" y2="1110.81" gradientTransform="matrix(18.76, 0, 0, -18.76, -2592.27, 20858.94)" xlink:href="#linear-gradient"/><linearGradient id="linear-gradient-6" x1="146.01" y1="1087.36" x2="147.9" y2="1087.36" gradientTransform="matrix(44.92, 0, 0, -44.92, -6550.5, 48939.33)" xlink:href="#linear-gradient"/></defs><g id="Layer_2" data-name="Layer 2"><g id="Vector_Elements" data-name="Vector Elements"><path class="cls-1" d="M1.42,294A21,21,0,0,1,2.3,288a12.56,12.56,0,0,1,3.46-4l92,0s2.49,2.2,3.22,4.1a27,27,0,0,1,1,5.91Z"/><path class="cls-2" d="M97.58,284.27a13,13,0,0,1,3.17,3.94,25.29,25.29,0,0,1,.94,5.59H1.66a19.47,19.47,0,0,1,.86-5.72,11.79,11.79,0,0,1,3.26-3.81h91.8m.17-.47H5.62a12.64,12.64,0,0,0-3.54,4.1c-.89,2.13-.9,6.37-.9,6.37h101a29.22,29.22,0,0,0-1-6.23C100.42,286,97.75,283.8,97.75,283.8Z"/><path class="cls-3" d="M6.34,282.1C2,276.37-.25,268.21.32,260.25c.53-7.39,5.4-14.92,9.32-21l1.48-2.3H93.21c3.46,5.21,9.25,15.27,9.84,24.9a29.14,29.14,0,0,1-6,20.22Z"/><path class="cls-2" d="M93.09,237.21c3.44,5.22,9.14,15.17,9.73,24.69a29,29,0,0,1-5.9,20H6.46C2.2,276.19,0,268.13.56,260.26c.52-7.32,5.38-14.82,9.28-20.85.49-.75,1-1.49,1.41-2.2H93.09m.25-.47H11C6.84,243.29.69,251.78.09,260.23S2,276.83,6.22,282.34H97.15a29.53,29.53,0,0,0,6.14-20.47C102.76,253.31,98.13,244,93.34,236.74Z"/><path class="cls-4" d="M11.4,235.05a3.73,3.73,0,0,1-2.21-1.56,3.4,3.4,0,0,1-.64-2.92,4.89,4.89,0,0,1,4.56-3.81H92a4.89,4.89,0,0,1,4.56,3.81,3.4,3.4,0,0,1-.64,2.92,3.72,3.72,0,0,1-2.22,1.56H11.4Z"/><path class="cls-2" d="M92,227a4.67,4.67,0,0,1,4.33,3.64,3.16,3.16,0,0,1-.6,2.72,3.53,3.53,0,0,1-2,1.46H11.42a3.52,3.52,0,0,1-2-1.46,3.16,3.16,0,0,1-.6-2.72A4.66,4.66,0,0,1,13.11,227H92m0-.47H13.11a5.15,5.15,0,0,0-4.79,4c-.69,2.63,2,4.73,3.08,4.77H93.67c1.1,0,3.77-2.14,3.08-4.77A5.15,5.15,0,0,0,92,226.52Z"/><path class="cls-5" d="M14.13,225c1.23-2.8,2.43-5.44,3.59-8,8.48-18.73,15.18-33.53,17.62-72.21H68C70.35,181.4,77.46,196.52,85.7,214c1.64,3.49,3.33,7.09,5,11Z"/><path class="cls-2" d="M67.81,145c2.34,36.51,9.45,51.62,17.68,69.11,1.59,3.39,3.23,6.88,4.89,10.63H14.5c1.17-2.67,2.32-5.21,3.43-7.68,8.48-18.71,15.18-33.51,17.63-72.06H67.81m.44-.47H35.12c-2.77,44.3-11.07,57.22-21.35,80.68H91.1C80.82,201.76,71,188.84,68.25,144.54Z"/><path class="cls-6" d="M52.47,36.33a17.18,17.18,0,0,1-8.84-2.44,20.66,20.66,0,0,0,1.6-1.47c4-4.12,5.71-8.88,3.81-10.84a3,3,0,0,0-2.18-.8c-2.35,0-5.66,1.83-8.45,4.68-.5.51-1,1-1.39,1.56A18.47,18.47,0,0,1,37.2,9.21c.44.55.94,1.12,1.53,1.73,2.79,2.84,6.11,4.67,8.46,4.67a2.9,2.9,0,0,0,2.15-.79c1.91-2,.24-6.71-3.79-10.85a19.25,19.25,0,0,0-1.61-1.48A17.31,17.31,0,0,1,61,2.49c-.52.45-1,.87-1.39,1.3-4,4.12-5.7,8.88-3.79,10.83a2.91,2.91,0,0,0,2.17.8c2.35,0,5.67-1.84,8.45-4.68a19,19,0,0,0,1.32-1.48,18.38,18.38,0,0,1,.07,17.93,18.87,18.87,0,0,0-1.53-1.74c-2.79-2.84-6.1-4.67-8.45-4.67a2.91,2.91,0,0,0-2.17.8c-1.9,2-.23,6.7,3.8,10.83A21.67,21.67,0,0,0,61.21,34,17.58,17.58,0,0,1,52.47,36.33Z"/><path class="cls-2" d="M52.47.47a17.14,17.14,0,0,1,8.14,2.06c-.43.38-.81.73-1.16,1.1-4.12,4.21-5.78,9.11-3.79,11.15a3.18,3.18,0,0,0,2.34.88c2.45,0,5.75-1.83,8.62-4.76.37-.37.75-.79,1.11-1.22a17.94,17.94,0,0,1,2.17,8.6,18.29,18.29,0,0,1-2.09,8.49c-.41-.51-.86-1-1.33-1.48-2.87-2.93-6.18-4.75-8.62-4.75a3.15,3.15,0,0,0-2.33.87c-2,2.05-.33,6.94,3.79,11.16.47.48,1,.93,1.47,1.37A17.13,17.13,0,0,1,44,33.86c.49-.42.94-.84,1.37-1.28,4.12-4.21,5.8-9.11,3.8-11.17a3.23,3.23,0,0,0-2.34-.87c-2.45,0-5.75,1.82-8.61,4.75-.45.45-.85.9-1.19,1.31a18.2,18.2,0,0,1,.18-17c.39.47.82,1,1.32,1.47,2.88,2.93,6.18,4.74,8.63,4.74A3.13,3.13,0,0,0,49.51,15c2-2,.33-6.94-3.79-11.17-.46-.47-.92-.9-1.37-1.28A17.09,17.09,0,0,1,52.47.47m0-.47a17.49,17.49,0,0,0-8.95,2.46,17,17,0,0,1,1.86,1.68c3.88,4,5.59,8.68,3.79,10.51a2.67,2.67,0,0,1-2,.72c-2.23,0-5.45-1.71-8.29-4.59a20.94,20.94,0,0,1-1.73-2,18.7,18.7,0,0,0-2.59,9.51A18.46,18.46,0,0,0,37,27.44a22.18,22.18,0,0,1,1.6-1.82c2.84-2.9,6.05-4.6,8.28-4.6a2.74,2.74,0,0,1,2,.72c1.78,1.84.08,6.54-3.81,10.51a20.13,20.13,0,0,1-1.84,1.67,17.58,17.58,0,0,0,18.4.08,17.69,17.69,0,0,1-2-1.76c-3.89-4-5.59-8.67-3.8-10.5a2.74,2.74,0,0,1,2-.73c2.23,0,5.44,1.71,8.28,4.61a18.74,18.74,0,0,1,1.73,2A18.66,18.66,0,0,0,67.8,8.84a18.46,18.46,0,0,1-1.52,1.73c-2.84,2.91-6.06,4.62-8.28,4.62a2.7,2.7,0,0,1-2-.73c-1.79-1.84-.09-6.54,3.79-10.5a17.32,17.32,0,0,1,1.63-1.5A17.42,17.42,0,0,0,52.47,0Z"/><path class="cls-7" d="M24.28,142.77c-.61-.07-5.46-2.89-5-7.35a8.85,8.85,0,0,1,6.12-7.67h4.78l1.51-26.56c-.21-.39-16.33-24.47-18.82-28.5-1.57-2.53-3.43-6.37-3.43-10.34A15.06,15.06,0,0,1,24.29,47.14h8.82v-4a4.14,4.14,0,0,1,4.09-4.19h29a4.15,4.15,0,0,1,4.1,4.19v4h8.81A15.07,15.07,0,0,1,94,62.35c0,4-1.87,7.81-3.43,10.34-2.49,4-18.42,27.46-18.58,27.7l1.26,27.36h4.89c.62,0,5.34,2.48,5.84,8.06.44,4.65-4.35,6.92-4.77,7H24.28Z"/><path class="cls-2" d="M66.18,39.16a3.92,3.92,0,0,1,3.86,4v4.26h9a14.82,14.82,0,0,1,14.65,15c0,3.9-1.84,7.71-3.39,10.22-2.49,4-18.41,27.45-18.57,27.68l-.09.14v.15l1.28,27,0,.45h5.11a9.31,9.31,0,0,1,5.61,7.85c.42,4.37-4.16,6.64-4.51,6.7H24.33c-.65-.11-5.26-2.83-4.85-7.1A8.6,8.6,0,0,1,25.37,128h5l0-.45,1.49-26.34V101l-.09-.13c-.16-.24-16.29-24.32-18.77-28.34-1.55-2.51-3.4-6.31-3.4-10.22a14.82,14.82,0,0,1,14.65-15h9.05V43.12a3.92,3.92,0,0,1,3.86-4h29m0-.47h-29a4.39,4.39,0,0,0-4.33,4.43v3.79H24.29A15.28,15.28,0,0,0,9.17,62.35c0,3.74,1.65,7.53,3.47,10.47,2.52,4.07,18.78,28.35,18.78,28.35l-1.49,26.35H25.37A9,9,0,0,0,19,135.39c-.44,4.64,4.56,7.54,5.27,7.62H79.22c.7-.08,5.42-2.58,5-7.22-.51-5.79-5.4-8.27-6.07-8.27H73.45l-1.28-27s16.06-23.63,18.58-27.7c1.81-2.94,3.46-6.73,3.46-10.47A15.28,15.28,0,0,0,79.09,46.91H70.51V43.12A4.38,4.38,0,0,0,66.18,38.69Z"/><path class="cls-1" d="M1.42,294A21,21,0,0,1,2.3,288a12.56,12.56,0,0,1,3.46-4l92,0s2.49,2.2,3.22,4.1a27,27,0,0,1,1,5.91Z"/><path class="cls-2" d="M97.58,284.27a13,13,0,0,1,3.17,3.94,25.29,25.29,0,0,1,.94,5.59H1.66a19.47,19.47,0,0,1,.86-5.72,11.79,11.79,0,0,1,3.26-3.81h91.8m.17-.47H5.62a12.64,12.64,0,0,0-3.54,4.1c-.89,2.13-.9,6.37-.9,6.37h101a29.22,29.22,0,0,0-1-6.23C100.42,286,97.75,283.8,97.75,283.8Z"/><path class="cls-3" d="M6.34,282.1C2,276.37-.25,268.21.32,260.25c.53-7.39,5.4-14.92,9.32-21l1.48-2.3H93.21c3.46,5.21,9.25,15.27,9.84,24.9a29.14,29.14,0,0,1-6,20.22Z"/><path class="cls-2" d="M93.09,237.21c3.44,5.22,9.14,15.17,9.73,24.69a29,29,0,0,1-5.9,20H6.46C2.2,276.19,0,268.13.56,260.26c.52-7.32,5.38-14.82,9.28-20.85.49-.75,1-1.49,1.41-2.2H93.09m.25-.47H11C6.84,243.29.69,251.78.09,260.23S2,276.83,6.22,282.34H97.15a29.53,29.53,0,0,0,6.14-20.47C102.76,253.31,98.13,244,93.34,236.74Z"/><path class="cls-4" d="M11.4,235.05a3.73,3.73,0,0,1-2.21-1.56,3.4,3.4,0,0,1-.64-2.92,4.89,4.89,0,0,1,4.56-3.81H92a4.89,4.89,0,0,1,4.56,3.81,3.4,3.4,0,0,1-.64,2.92,3.72,3.72,0,0,1-2.22,1.56H11.4Z"/><path class="cls-2" d="M92,227a4.67,4.67,0,0,1,4.33,3.64,3.16,3.16,0,0,1-.6,2.72,3.53,3.53,0,0,1-2,1.46H11.42a3.52,3.52,0,0,1-2-1.46,3.16,3.16,0,0,1-.6-2.72A4.66,4.66,0,0,1,13.11,227H92m0-.47H13.11a5.15,5.15,0,0,0-4.79,4c-.69,2.63,2,4.73,3.08,4.77H93.67c1.1,0,3.77-2.14,3.08-4.77A5.15,5.15,0,0,0,92,226.52Z"/><path class="cls-5" d="M14.13,225c1.23-2.8,2.43-5.44,3.59-8,8.48-18.73,15.18-33.53,17.62-72.21H68C70.35,181.4,77.46,196.52,85.7,214c1.64,3.49,3.33,7.09,5,11Z"/><path class="cls-2" d="M67.81,145c2.34,36.51,9.45,51.62,17.68,69.11,1.59,3.39,3.23,6.88,4.89,10.63H14.5c1.17-2.67,2.32-5.21,3.43-7.68,8.48-18.71,15.18-33.51,17.63-72.06H67.81m.44-.47H35.12c-2.77,44.3-11.07,57.22-21.35,80.68H91.1C80.82,201.76,71,188.84,68.25,144.54Z"/><path class="cls-7" d="M24.28,142.77c-.61-.07-5.46-2.89-5-7.35a8.85,8.85,0,0,1,6.12-7.67h4.78l1.51-26.56c-.21-.39-16.33-24.47-18.82-28.5-1.57-2.53-3.43-6.37-3.43-10.34A15.06,15.06,0,0,1,24.29,47.14h8.82v-4a4.14,4.14,0,0,1,4.09-4.19h29a4.15,4.15,0,0,1,4.1,4.19v4h8.81A15.07,15.07,0,0,1,94,62.35c0,4-1.87,7.81-3.43,10.34-2.49,4-18.42,27.46-18.58,27.7l1.26,27.36h4.89c.62,0,5.34,2.48,5.84,8.06.44,4.65-4.35,6.92-4.77,7H24.28Z"/><path class="cls-2" d="M66.18,39.16a3.92,3.92,0,0,1,3.86,4v4.26h9a14.82,14.82,0,0,1,14.65,15c0,3.9-1.84,7.71-3.39,10.22-2.49,4-18.41,27.45-18.57,27.68l-.09.14v.15l1.28,27,0,.45h5.11a9.31,9.31,0,0,1,5.61,7.85c.42,4.37-4.16,6.64-4.51,6.7H24.33c-.65-.11-5.26-2.83-4.85-7.1A8.6,8.6,0,0,1,25.37,128h5l0-.45,1.49-26.34V101l-.09-.13c-.16-.24-16.29-24.32-18.77-28.34-1.55-2.51-3.4-6.31-3.4-10.22a14.82,14.82,0,0,1,14.65-15h9.05V43.12a3.92,3.92,0,0,1,3.86-4h29m0-.47h-29a4.39,4.39,0,0,0-4.33,4.43v3.79H24.29A15.28,15.28,0,0,0,9.17,62.35c0,3.74,1.65,7.53,3.47,10.47,2.52,4.07,18.78,28.35,18.78,28.35l-1.49,26.35H25.37A9,9,0,0,0,19,135.39c-.44,4.64,4.56,7.54,5.27,7.62H79.22c.7-.08,5.42-2.58,5-7.22-.51-5.79-5.4-8.27-6.07-8.27H73.45l-1.28-27s16.06-23.63,18.58-27.7c1.81-2.94,3.46-6.73,3.46-10.47A15.28,15.28,0,0,0,79.09,46.91H70.51V43.12A4.38,4.38,0,0,0,66.18,38.69Z"/></g></g></svg>