<svg xmlns="http://www.w3.org/2000/svg" xmlns:xlink="http://www.w3.org/1999/xlink" viewBox="0 0 89.72 195.35"><defs><style>.cls-1{fill:url(#linear-gradient);}.cls-2{fill:#a6a8ac;}.cls-3{fill:url(#linear-gradient-2);}.cls-4{fill:url(#linear-gradient-3);}.cls-5{fill:url(#linear-gradient-4);}</style><linearGradient id="linear-gradient" x1="248" y1="985.93" x2="249.88" y2="985.93" gradientTransform="matrix(46.26, 0, 0, -46.26, -11470.53, 45799.03)" gradientUnits="userSpaceOnUse"><stop offset="0" stop-color="#cbccce"/><stop offset="0.66" stop-color="#ebeceb"/><stop offset="1" stop-color="#fff"/></linearGradient><linearGradient id="linear-gradient-2" x1="248.12" y1="985.89" x2="250" y2="985.89" gradientTransform="matrix(47.41, 0, 0, -47.41, -11762.74, 46901.81)" xlink:href="#linear-gradient"/><linearGradient id="linear-gradient-3" x1="247.21" y1="988.51" x2="249.09" y2="988.51" gradientTransform="matrix(40.25, 0, 0, -40.25, -9942.42, 39924.07)" xlink:href="#linear-gradient"/><linearGradient id="linear-gradient-4" x1="246.47" y1="991.3" x2="248.35" y2="991.3" gradientTransform="matrix(35.98, 0, 0, -35.98, -8857, 35730.67)" xlink:href="#linear-gradient"/></defs><g id="Layer_2" data-name="Layer 2"><g id="Vector_Elements" data-name="Vector Elements"><path class="cls-1" d="M1.32,195.12a19.05,19.05,0,0,1,.81-5.54,11.42,11.42,0,0,1,3.16-3.68l79.29,0s2.26,2,2.93,3.76a24.24,24.24,0,0,1,.89,5.41Z"/><path class="cls-2" d="M84.41,186.18a12,12,0,0,1,2.88,3.61,23.65,23.65,0,0,1,.86,5.09H1.56a17.9,17.9,0,0,1,.78-5.21,11,11,0,0,1,3-3.49h79.1m.17-.47H5.15a11.63,11.63,0,0,0-3.24,3.78,20.38,20.38,0,0,0-.83,5.86H88.66a26.77,26.77,0,0,0-.93-5.73A12.86,12.86,0,0,0,84.58,185.71Z"/><path class="cls-3" d="M5.82,184.14c-4-5.27-6-12.77-5.5-20.1.48-6.79,4.95-13.72,8.54-19.29.46-.72.92-1.42,1.35-2.1h70.2c3.16,4.79,8.46,14,9,22.9a26.89,26.89,0,0,1-5.51,18.59Z"/><path class="cls-2" d="M80.28,142.89c3.16,4.8,8.37,13.93,8.91,22.67A26.67,26.67,0,0,1,83.8,183.9H5.94C2.05,178.69,0,171.29.55,164.06c.48-6.73,4.93-13.63,8.51-19.18l1.28-2H80.28m.26-.47H10.08c-3.81,6-9.45,13.84-10,21.61A30.73,30.73,0,0,0,5.7,184.37H84a27.27,27.27,0,0,0,5.63-18.83C89.17,157.66,84.93,149,80.54,142.42Z"/><path class="cls-4" d="M10.45,140.84a3.45,3.45,0,0,1-2-1.42,3.12,3.12,0,0,1-.59-2.67,4.48,4.48,0,0,1,4.16-3.5H79.27a4.47,4.47,0,0,1,4.16,3.5,3.09,3.09,0,0,1-.59,2.67,3.42,3.42,0,0,1-2,1.42H10.45Z"/><path class="cls-2" d="M79.27,133.49a4.22,4.22,0,0,1,3.93,3.32,2.85,2.85,0,0,1-.55,2.47,3.31,3.31,0,0,1-1.82,1.33H10.47a3.27,3.27,0,0,1-1.84-1.33,2.9,2.9,0,0,1-.55-2.48A4.23,4.23,0,0,1,12,133.49H79.27m0-.47H12a4.72,4.72,0,0,0-4.39,3.67C7,139.1,9.44,141,10.45,141.08H80.84c1,0,3.46-2,2.82-4.39A4.7,4.7,0,0,0,79.27,133Z"/><path class="cls-5" d="M14,131.31c7.06-16.81,15.15-44.24,17.73-60.12l0-.27H17.62c-.45-.07-7.1-3.49-6.67-9.3a11.27,11.27,0,0,1,7.74-9.75h14.7l0-.58-.15-.07A27,27,0,0,1,18.27,27a26.5,26.5,0,1,1,53,0,27,27,0,0,1-15,24.18l-.15.07,0,.58H70.63c.57,0,7.52,2.61,8,9.75.43,5.78-6.48,9.23-7,9.3H57.74l0,.27c2.66,16.35,12.4,45.41,20.14,60.12Z"/><path class="cls-2" d="M44.77.47A26.44,26.44,0,0,1,71,27a26.75,26.75,0,0,1-14.9,24l-.29.14,0,.33,0,.2,0,.43H70.62c.69.06,7.31,2.66,7.79,9.53.41,5.51-6.21,8.93-6.72,9.05H57.46l.09.55c2.64,16.24,12.26,45,20,59.84H14.38c7-16.85,15-44,17.6-59.84l.09-.55H17.69c-.55-.11-6.91-3.52-6.5-9.05a11.07,11.07,0,0,1,7.5-9.53H33.61l0-.43,0-.21,0-.32L33.4,51A26.75,26.75,0,0,1,18.5,27,26.45,26.45,0,0,1,44.77.47m0-.47A27.1,27.1,0,0,0,33.19,51.42l0,.21H18.69a11.43,11.43,0,0,0-8,10c-.44,5.84,6.2,9.44,6.89,9.55H31.52C28.87,87.45,20.67,115,13.67,131.54H78.31C70.62,117.09,60.66,87.46,58,71.15h13.7c.69-.11,7.61-3.71,7.17-9.55-.51-7.3-7.59-10-8.25-10H56.36l0-.21A27.1,27.1,0,0,0,44.77,0Z"/><path class="cls-1" d="M1.32,195.12a19.05,19.05,0,0,1,.81-5.54,11.42,11.42,0,0,1,3.16-3.68l79.29,0s2.26,2,2.93,3.76a24.24,24.24,0,0,1,.89,5.41Z"/><path class="cls-2" d="M84.41,186.18a12,12,0,0,1,2.88,3.61,23.65,23.65,0,0,1,.86,5.09H1.56a17.9,17.9,0,0,1,.78-5.21,11,11,0,0,1,3-3.49h79.1m.17-.47H5.15a11.63,11.63,0,0,0-3.24,3.78,20.38,20.38,0,0,0-.83,5.86H88.66a26.77,26.77,0,0,0-.93-5.73A12.86,12.86,0,0,0,84.58,185.71Z"/><path class="cls-3" d="M5.82,184.14c-4-5.27-6-12.77-5.5-20.1.48-6.79,4.95-13.72,8.54-19.29.46-.72.92-1.42,1.35-2.1h70.2c3.16,4.79,8.46,14,9,22.9a26.89,26.89,0,0,1-5.51,18.59Z"/><path class="cls-2" d="M80.28,142.89c3.16,4.8,8.37,13.93,8.91,22.67A26.67,26.67,0,0,1,83.8,183.9H5.94C2.05,178.69,0,171.29.55,164.06c.48-6.73,4.93-13.63,8.51-19.18l1.28-2H80.28m.26-.47H10.08c-3.81,6-9.45,13.84-10,21.61A30.73,30.73,0,0,0,5.7,184.37H84a27.27,27.27,0,0,0,5.63-18.83C89.17,157.66,84.93,149,80.54,142.42Z"/><path class="cls-4" d="M10.45,140.84a3.45,3.45,0,0,1-2-1.42,3.12,3.12,0,0,1-.59-2.67,4.48,4.48,0,0,1,4.16-3.5H79.27a4.47,4.47,0,0,1,4.16,3.5,3.09,3.09,0,0,1-.59,2.67,3.42,3.42,0,0,1-2,1.42H10.45Z"/><path class="cls-2" d="M79.27,133.49a4.22,4.22,0,0,1,3.93,3.32,2.85,2.85,0,0,1-.55,2.47,3.31,3.31,0,0,1-1.82,1.33H10.47a3.27,3.27,0,0,1-1.84-1.33,2.9,2.9,0,0,1-.55-2.48A4.23,4.23,0,0,1,12,133.49H79.27m0-.47H12a4.72,4.72,0,0,0-4.39,3.67C7,139.1,9.44,141,10.45,141.08H80.84c1,0,3.46-2,2.82-4.39A4.7,4.7,0,0,0,79.27,133Z"/><path class="cls-5" d="M14,131.31c7.06-16.81,15.15-44.24,17.73-60.12l0-.27H17.62c-.45-.07-7.1-3.49-6.67-9.3a11.27,11.27,0,0,1,7.74-9.75h14.7l0-.58-.15-.07A27,27,0,0,1,18.27,27a26.5,26.5,0,1,1,53,0,27,27,0,0,1-15,24.18l-.15.07,0,.58H70.63c.57,0,7.52,2.61,8,9.75.43,5.78-6.48,9.23-7,9.3H57.74l0,.27c2.66,16.35,12.4,45.41,20.14,60.12Z"/><path class="cls-2" d="M44.77.47A26.44,26.44,0,0,1,71,27a26.75,26.75,0,0,1-14.9,24l-.29.14,0,.33,0,.2,0,.43H70.62c.69.06,7.31,2.66,7.79,9.53.41,5.51-6.21,8.93-6.72,9.05H57.46l.09.55c2.64,16.24,12.26,45,20,59.84H14.38c7-16.85,15-44,17.6-59.84l.09-.55H17.69c-.55-.11-6.91-3.52-6.5-9.05a11.07,11.07,0,0,1,7.5-9.53H33.61l0-.43,0-.21,0-.32L33.4,51A26.75,26.75,0,0,1,18.5,27,26.45,26.45,0,0,1,44.77.47m0-.47A27.1,27.1,0,0,0,33.19,51.42l0,.21H18.69a11.43,11.43,0,0,0-8,10c-.44,5.84,6.2,9.44,6.89,9.55H31.52C28.87,87.45,20.67,115,13.67,131.54H78.31C70.62,117.09,60.66,87.46,58,71.15h13.7c.69-.11,7.61-3.71,7.17-9.55-.51-7.3-7.59-10-8.25-10H56.36l0-.21A27.1,27.1,0,0,0,44.77,0Z"/></g></g></svg>