<svg xmlns="http://www.w3.org/2000/svg" xmlns:xlink="http://www.w3.org/1999/xlink" viewBox="0 0 106.78 272.27"><defs><style>.cls-1{fill:url(#linear-gradient);}.cls-2{fill:url(#linear-gradient-2);}.cls-3{fill:url(#linear-gradient-3);}.cls-4{fill:url(#linear-gradient-4);}.cls-5{fill:url(#linear-gradient-5);}.cls-6{fill:url(#linear-gradient-6);}.cls-7{fill:url(#linear-gradient-7);}.cls-8{fill:url(#linear-gradient-8);}.cls-9{fill:url(#linear-gradient-9);}.cls-10{fill:url(#linear-gradient-10);}.cls-11{fill:url(#linear-gradient-11);}.cls-12{fill:url(#linear-gradient-12);}</style><linearGradient id="linear-gradient" x1="14.96" y1="164.44" x2="93.87" y2="164.44" gradientUnits="userSpaceOnUse"><stop offset="0" stop-color="#231f20"/><stop offset="0.13" stop-color="#231f20"/><stop offset="0.17" stop-color="#252122"/><stop offset="1" stop-color="#49494b"/></linearGradient><linearGradient id="linear-gradient-2" x1="14.56" y1="164.44" x2="94.27" y2="164.44" xlink:href="#linear-gradient"/><linearGradient id="linear-gradient-3" x1="38" y1="17.17" x2="71.87" y2="17.17" xlink:href="#linear-gradient"/><linearGradient id="linear-gradient-4" x1="37.77" y1="17.17" x2="72.11" y2="17.17" xlink:href="#linear-gradient"/><linearGradient id="linear-gradient-5" x1="1.42" y1="267.12" x2="105.37" y2="267.12" xlink:href="#linear-gradient"/><linearGradient id="linear-gradient-6" x1="1.18" y1="267.14" x2="105.62" y2="267.14" xlink:href="#linear-gradient"/><linearGradient id="linear-gradient-7" x1="0.24" y1="238.27" x2="106.55" y2="238.27" xlink:href="#linear-gradient"/><linearGradient id="linear-gradient-8" x1="0" y1="238.27" x2="106.78" y2="238.27" xlink:href="#linear-gradient"/><linearGradient id="linear-gradient-9" x1="8.45" y1="210.24" x2="100.05" y2="210.24" xlink:href="#linear-gradient"/><linearGradient id="linear-gradient-10" x1="8.21" y1="210.24" x2="100.29" y2="210.24" xlink:href="#linear-gradient"/><linearGradient id="linear-gradient-11" x1="9.66" y1="79.64" x2="98.88" y2="79.64" xlink:href="#linear-gradient"/><linearGradient id="linear-gradient-12" x1="9.42" y1="79.62" x2="99.12" y2="79.62" xlink:href="#linear-gradient"/></defs><g id="Layer_2" data-name="Layer 2"><g id="Vector_Elements" data-name="Vector Elements"><path class="cls-1" d="M15,204l1.15-2.13c10.19-18.9,19-35.23,21.7-77H70.92C73.66,167,83.07,184.24,93,202.45l.83,1.53Z"/><path class="cls-2" d="M70.7,125.13c2.76,42,12.17,59.23,22.13,77.43l.65,1.19H15.35l1-1.79c10.19-18.89,19-35.21,21.72-76.83H70.7m.44-.47H37.59c-2.81,43.69-12.48,59.92-23,79.56H94.27C83.86,185.15,74,168.35,71.14,124.66Z"/><path class="cls-3" d="M54.94,34.11A16.94,16.94,0,1,1,71.87,17.17,17,17,0,0,1,54.94,34.11Z"/><path class="cls-4" d="M54.94.47a16.7,16.7,0,1,1-16.7,16.7A16.72,16.72,0,0,1,54.94.47m0-.47A17.17,17.17,0,1,0,72.11,17.17,17.17,17.17,0,0,0,54.94,0Z"/><path class="cls-5" d="M1.42,272a20,20,0,0,1,.88-5.91,12.4,12.4,0,0,1,3.46-3.92l95.42,0c-.05,0,2.48,2.15,3.21,4a25.19,25.19,0,0,1,1,5.78Z"/><path class="cls-6" d="M101,262.49a12.61,12.61,0,0,1,3.16,3.86,24,24,0,0,1,1,5.45H1.66a18.8,18.8,0,0,1,.86-5.58,11.65,11.65,0,0,1,3.26-3.73H101m.17-.47H5.62a12.4,12.4,0,0,0-3.53,4c-.9,2.09-.91,6.24-.91,6.24H105.62a27.3,27.3,0,0,0-1-6.09C103.84,264.21,101.18,262,101.18,262Z"/><path class="cls-7" d="M6.34,260.36C2,254.75-.25,246.76.32,239c.53-7.22,5.41-14.59,9.32-20.52.52-.77,1-1.53,1.49-2.26H96.64c3.45,5.1,9.24,15,9.84,24.38a28.14,28.14,0,0,1-6,19.8Z"/><path class="cls-8" d="M96.52,216.42c3.44,5.11,9.13,14.85,9.72,24.16a27.82,27.82,0,0,1-5.9,19.54H6.46C2.2,254.56,0,246.68.56,239c.52-7.16,5.38-14.51,9.28-20.41.49-.74,1-1.45,1.41-2.15H96.52m.25-.47H11C6.85,222.36.69,230.68.09,238.94S2,255.2,6.23,260.59h94.34a28.4,28.4,0,0,0,6.14-20C106.18,232.17,101.56,223,96.77,216Z"/><path class="cls-9" d="M11.4,214.29a3.83,3.83,0,0,1-2.24-1.57,3.25,3.25,0,0,1-.61-2.81,4.88,4.88,0,0,1,4.56-3.73H95.38a4.87,4.87,0,0,1,4.56,3.73,3.22,3.22,0,0,1-.61,2.81,3.75,3.75,0,0,1-2.24,1.57H11.4Z"/><path class="cls-10" d="M95.38,206.42A4.65,4.65,0,0,1,99.72,210a3,3,0,0,1-.58,2.61,3.58,3.58,0,0,1-2,1.47H11.42a3.58,3.58,0,0,1-2.07-1.47A3,3,0,0,1,8.78,210a4.62,4.62,0,0,1,4.33-3.55H95.38m0-.47H13.11a5.13,5.13,0,0,0-4.79,3.9c-.69,2.57,2,4.63,3.08,4.67H97.09c1.1,0,3.78-2.1,3.08-4.67A5.11,5.11,0,0,0,95.38,206Z"/><path class="cls-11" d="M33.06,123.17H23.73c-.68-.07-6-3.09-5.51-7.86a9.54,9.54,0,0,1,6.69-8.19H35v-.22c1.63-25.56-11.31-47.11-20.56-53.62-1.35-1-7.85-6-3.15-12.72a8.54,8.54,0,0,1,7.13-3.8,7.54,7.54,0,0,1,2,.26,13.14,13.14,0,0,1,2.28,1.07c2,1.09,4.77,2.57,7.83,2.57,4.71,0,9.09-2.43,12-4.52C46,38.6,50,41.08,54.35,41.08s8.15-2.38,11.1-4.45a4,4,0,0,1,.52-.5l.13,0c.36.27.74.57,1.13.89a19.79,19.79,0,0,0,10.7,3.65c3.06,0,5.82-1.48,7.83-2.57A13.14,13.14,0,0,1,88,37a7.56,7.56,0,0,1,2-.26,8.54,8.54,0,0,1,7.13,3.8c4.69,6.7-1.8,11.77-3.15,12.72-9.22,6.48-22.13,27.95-20.58,53.44l0,.27.25.13h8.7c.68,0,5.84,2.65,6.38,8.62.47,4.73-4.41,7.34-5.21,7.44H33.06Z"/><path class="cls-12" d="M66,36.39l.1,0h0c.32.23.64.49,1,.78a20,20,0,0,0,10.81,3.68c3.12,0,5.91-1.5,7.95-2.6a13.58,13.58,0,0,1,2.23-1.06,7.85,7.85,0,0,1,2-.24A8.31,8.31,0,0,1,97,40.69c4.56,6.51-1.78,11.46-3.1,12.39-9.25,6.5-22.21,28-20.67,53.59l0,.13-.09.54h9.25c.77.07,5.63,2.74,6.15,8.41.46,4.74-4.57,7.13-5,7.18H23.78c-.7-.1-5.77-3.06-5.33-7.61a9.39,9.39,0,0,1,6.46-8H35.26l0-.44c1.63-25.65-11.37-47.28-20.67-53.82C13.3,52.15,7,47.21,11.53,40.69A8.29,8.29,0,0,1,18.47,37a8,8,0,0,1,2,.24,14.39,14.39,0,0,1,2.23,1.06c2,1.1,4.83,2.6,7.94,2.6,4.7,0,9.06-2.38,12-4.47,3.39,2.46,7.42,4.9,11.77,4.9s8.25-2.41,11.23-4.5l0,0,0,0,.36-.36M66,35.84a3.94,3.94,0,0,0-.64.6c-3.15,2.21-6.94,4.41-11,4.41-4.42,0-8.46-2.59-11.77-5-3.31,2.42-7.56,4.58-12,4.58s-8.12-3.1-10-3.64a7.83,7.83,0,0,0-2.08-.26,8.75,8.75,0,0,0-7.33,3.9c-4.15,5.93.1,10.86,3.21,13,9.69,6.82,22,28.82,20.47,53.41H24.91A9.68,9.68,0,0,0,18,115.28c-.48,4.94,5,8,5.74,8.12H83.58c.77-.09,5.9-2.75,5.42-7.7-.57-6.18-5.89-8.83-6.62-8.83h-8.7l0-.18c-1.5-24.52,10.8-46.42,20.47-53.23,3.11-2.18,7.36-7.11,3.21-13a8.74,8.74,0,0,0-7.32-3.9,7.85,7.85,0,0,0-2.09.26c-1.92.54-5.67,3.64-10,3.64a19.89,19.89,0,0,1-10.55-3.6c-.43-.35-.84-.68-1.24-1l-.09.06Z"/><path class="cls-1" d="M15,204l1.15-2.13c10.19-18.9,19-35.23,21.7-77H70.92C73.66,167,83.07,184.24,93,202.45l.83,1.53Z"/><path class="cls-2" d="M70.7,125.13c2.76,42,12.17,59.23,22.13,77.43l.65,1.19H15.35l1-1.79c10.19-18.89,19-35.21,21.72-76.83H70.7m.44-.47H37.59c-2.81,43.69-12.48,59.92-23,79.56H94.27C83.86,185.15,74,168.35,71.14,124.66Z"/><path class="cls-5" d="M1.42,272a20,20,0,0,1,.88-5.91,12.4,12.4,0,0,1,3.46-3.92l95.42,0c-.05,0,2.48,2.15,3.21,4a25.19,25.19,0,0,1,1,5.78Z"/><path class="cls-6" d="M101,262.49a12.61,12.61,0,0,1,3.16,3.86,24,24,0,0,1,1,5.45H1.66a18.8,18.8,0,0,1,.86-5.58,11.65,11.65,0,0,1,3.26-3.73H101m.17-.47H5.62a12.4,12.4,0,0,0-3.53,4c-.9,2.09-.91,6.24-.91,6.24H105.62a27.3,27.3,0,0,0-1-6.09C103.84,264.21,101.18,262,101.18,262Z"/><path class="cls-7" d="M6.34,260.36C2,254.75-.25,246.76.32,239c.53-7.22,5.41-14.59,9.32-20.52.52-.77,1-1.53,1.49-2.26H96.64c3.45,5.1,9.24,15,9.84,24.38a28.14,28.14,0,0,1-6,19.8Z"/><path class="cls-8" d="M96.52,216.42c3.44,5.11,9.13,14.85,9.72,24.16a27.82,27.82,0,0,1-5.9,19.54H6.46C2.2,254.56,0,246.68.56,239c.52-7.16,5.38-14.51,9.28-20.41.49-.74,1-1.45,1.41-2.15H96.52m.25-.47H11C6.85,222.36.69,230.68.09,238.94S2,255.2,6.23,260.59h94.34a28.4,28.4,0,0,0,6.14-20C106.18,232.17,101.56,223,96.77,216Z"/><path class="cls-9" d="M11.4,214.29a3.83,3.83,0,0,1-2.24-1.57,3.25,3.25,0,0,1-.61-2.81,4.88,4.88,0,0,1,4.56-3.73H95.38a4.87,4.87,0,0,1,4.56,3.73,3.22,3.22,0,0,1-.61,2.81,3.75,3.75,0,0,1-2.24,1.57H11.4Z"/><path class="cls-10" d="M95.38,206.42A4.65,4.65,0,0,1,99.72,210a3,3,0,0,1-.58,2.61,3.58,3.58,0,0,1-2,1.47H11.42a3.58,3.58,0,0,1-2.07-1.47A3,3,0,0,1,8.78,210a4.62,4.62,0,0,1,4.33-3.55H95.38m0-.47H13.11a5.13,5.13,0,0,0-4.79,3.9c-.69,2.57,2,4.63,3.08,4.67H97.09c1.1,0,3.78-2.1,3.08-4.67A5.11,5.11,0,0,0,95.38,206Z"/><path class="cls-11" d="M33.06,123.17H23.73c-.68-.07-6-3.09-5.51-7.86a9.54,9.54,0,0,1,6.69-8.19H35v-.22c1.63-25.56-11.31-47.11-20.56-53.62-1.35-1-7.85-6-3.15-12.72a8.54,8.54,0,0,1,7.13-3.8,7.54,7.54,0,0,1,2,.26,13.14,13.14,0,0,1,2.28,1.07c2,1.09,4.77,2.57,7.83,2.57,4.71,0,9.09-2.43,12-4.52C46,38.6,50,41.08,54.35,41.08s8.15-2.38,11.1-4.45a4,4,0,0,1,.52-.5l.13,0c.36.27.74.57,1.13.89a19.79,19.79,0,0,0,10.7,3.65c3.06,0,5.82-1.48,7.83-2.57A13.14,13.14,0,0,1,88,37a7.56,7.56,0,0,1,2-.26,8.54,8.54,0,0,1,7.13,3.8c4.69,6.7-1.8,11.77-3.15,12.72-9.22,6.48-22.13,27.95-20.58,53.44l0,.27.25.13h8.7c.68,0,5.84,2.65,6.38,8.62.47,4.73-4.41,7.34-5.21,7.44H33.06Z"/><path class="cls-12" d="M66,36.39l.1,0h0c.32.23.64.49,1,.78a20,20,0,0,0,10.81,3.68c3.12,0,5.91-1.5,7.95-2.6a13.58,13.58,0,0,1,2.23-1.06,7.85,7.85,0,0,1,2-.24A8.31,8.31,0,0,1,97,40.69c4.56,6.51-1.78,11.46-3.1,12.39-9.25,6.5-22.21,28-20.67,53.59l0,.13-.09.54h9.25c.77.07,5.63,2.74,6.15,8.41.46,4.74-4.57,7.13-5,7.18H23.78c-.7-.1-5.77-3.06-5.33-7.61a9.39,9.39,0,0,1,6.46-8H35.26l0-.44c1.63-25.65-11.37-47.28-20.67-53.82C13.3,52.15,7,47.21,11.53,40.69A8.29,8.29,0,0,1,18.47,37a8,8,0,0,1,2,.24,14.39,14.39,0,0,1,2.23,1.06c2,1.1,4.83,2.6,7.94,2.6,4.7,0,9.06-2.38,12-4.47,3.39,2.46,7.42,4.9,11.77,4.9s8.25-2.41,11.23-4.5l0,0,0,0,.36-.36M66,35.84a3.94,3.94,0,0,0-.64.6c-3.15,2.21-6.94,4.41-11,4.41-4.42,0-8.46-2.59-11.77-5-3.31,2.42-7.56,4.58-12,4.58s-8.12-3.1-10-3.64a7.83,7.83,0,0,0-2.08-.26,8.75,8.75,0,0,0-7.33,3.9c-4.15,5.93.1,10.86,3.21,13,9.69,6.82,22,28.82,20.47,53.41H24.91A9.68,9.68,0,0,0,18,115.28c-.48,4.94,5,8,5.74,8.12H83.58c.77-.09,5.9-2.75,5.42-7.7-.57-6.18-5.89-8.83-6.62-8.83h-8.7l0-.18c-1.5-24.52,10.8-46.42,20.47-53.23,3.11-2.18,7.36-7.11,3.21-13a8.74,8.74,0,0,0-7.32-3.9,7.85,7.85,0,0,0-2.09.26c-1.92.54-5.67,3.64-10,3.64a19.89,19.89,0,0,1-10.55-3.6c-.43-.35-.84-.68-1.24-1l-.09.06Z"/></g></g></svg>