<svg xmlns="http://www.w3.org/2000/svg" xmlns:xlink="http://www.w3.org/1999/xlink" viewBox="0 0 113.62 212.5"><defs><style>.cls-1{fill:url(#linear-gradient);}.cls-2{fill:#a6a8ac;}.cls-3{fill:url(#linear-gradient-2);}.cls-4{fill:url(#linear-gradient-3);}.cls-5{fill:url(#linear-gradient-4);}.cls-6{fill:url(#linear-gradient-5);}.cls-7{fill:url(#linear-gradient-6);}</style><linearGradient id="linear-gradient" x1="-236.09" y1="1002.97" x2="-234.21" y2="1002.97" gradientTransform="matrix(53.47, 0, 0, -53.47, 12630.49, 53649.99)" gradientUnits="userSpaceOnUse"><stop offset="0" stop-color="#cbccce"/><stop offset="0.66" stop-color="#ebeceb"/><stop offset="1" stop-color="#fff"/></linearGradient><linearGradient id="linear-gradient-2" x1="-236.17" y1="1006.77" x2="-234.29" y2="1006.77" gradientTransform="matrix(39.34, 0, 0, -39.34, 9311.05, 39702.74)" xlink:href="#linear-gradient"/><linearGradient id="linear-gradient-3" x1="-236.07" y1="1000.28" x2="-234.19" y2="1000.28" gradientTransform="matrix(58.98, 0, 0, -58.98, 13925.84, 59207.11)" xlink:href="#linear-gradient"/><linearGradient id="linear-gradient-4" x1="-236.06" y1="1000.36" x2="-234.18" y2="1000.36" gradientTransform="matrix(60.1, 0, 0, -60.1, 14188.83, 60294.76)" xlink:href="#linear-gradient"/><linearGradient id="linear-gradient-5" x1="-236.11" y1="1002.91" x2="-234.23" y2="1002.91" gradientTransform="matrix(49.51, 0, 0, -49.51, 11698.82, 49787.19)" xlink:href="#linear-gradient"/><linearGradient id="linear-gradient-6" x1="-236.15" y1="1006.62" x2="-234.26" y2="1006.62" gradientTransform="matrix(40.91, 0, 0, -40.91, 9678.42, 41223.83)" xlink:href="#linear-gradient"/></defs><g id="Layer_2" data-name="Layer 2"><g id="Vector_Elements" data-name="Vector Elements"><path class="cls-1" d="M24.73,39.45c.06,0-7.51-5.2-12.66-16.65A71,71,0,0,1,6.33.24H31l-1.8,18.61H47.42L45.63.24H67.69L65.9,18.85H84.09L82.29.24H107c-.19,1.9-1.52,14-5.73,22.55-4.33,8.87-12,15.94-12.76,16.66Z"/><path class="cls-2" d="M106.73.47c-.27,2.54-1.65,14-5.68,22.22C96.84,31.3,89.48,38.23,88.41,39.22H24.88c-1-.7-7.82-5.91-12.6-16.52A71,71,0,0,1,6.58.47H30.77L29,18.57l0,.51h18.7l0-.51L45.89.47H67.44l-1.75,18.1,0,.51H84.35l0-.51L82.55.47h24.18m.52-.47H82l1.79,18.61H66.16L68,0H45.37l1.79,18.61H29.49L31.29,0H6.08a70.41,70.41,0,0,0,5.77,22.89c5.24,11.66,12.88,16.8,12.88,16.8H88.59s8.26-7.34,12.89-16.8S107.25,0,107.25,0Z"/><polygon class="cls-3" points="19.77 129.48 26.87 55.23 86.75 55.23 93.84 129.48 19.77 129.48"/><path class="cls-2" d="M86.54,55.47l7,73.78H20l7-73.78H86.54M87,55H26.65l-7.13,74.72H94.1Z"/><path class="cls-4" d="M1.2,212.27A58.26,58.26,0,0,1,3,205.17c.9-2.45,4.05-5,4.08-5l99.51,0c-.06,0,3.32,3.49,4.09,5.78.67,2,1.38,5.28,1.58,6.26Z"/><path class="cls-2" d="M106.37,200.47c.65.67,3.39,3.61,4.06,5.62.62,1.82,1.26,4.72,1.52,5.94H1.49a57,57,0,0,1,1.71-6.78c.78-2.11,3.29-4.29,3.88-4.78h99.29m.2-.47H6.91s-3.22,2.54-4.15,5.09A62.29,62.29,0,0,0,.92,212.5H112.53s-.85-4.16-1.65-6.56S106.57,200,106.57,200Z"/><path class="cls-5" d="M7.67,198c-5.41-8.13-7.89-16.5-7.36-24.86.43-7,5.76-14.73,10.46-21.5,1.9-2.73,3.7-5.32,5-7.6H100c1,1.63,2,3.33,3.09,5.08,4.6,7.43,9.81,15.84,10.25,24s-2.08,16.68-7.51,24.86Z"/><path class="cls-2" d="M99.85,144.3c.94,1.6,2,3.24,3,5,4.58,7.4,9.78,15.78,10.22,23.9s-2,16.51-7.41,24.62H7.8C2.46,189.73,0,181.45.54,173.17c.43-7,5.74-14.63,10.43-21.38,1.87-2.69,3.63-5.23,4.91-7.49h84m.27-.47H15.6C11.27,151.65.69,163.07.07,173.14s3.08,18.54,7.47,25.12H106c4.38-6.58,8.15-15.19,7.62-25.12C113,162.93,105.12,152.43,100.12,143.83Z"/><path class="cls-6" d="M14.25,141.85A4.78,4.78,0,0,1,11.62,140a4.16,4.16,0,0,1-.87-3.42A5.86,5.86,0,0,1,16,131.87H98.34a5.87,5.87,0,0,1,5.44,4.56,4.11,4.11,0,0,1-.89,3.37,5.31,5.31,0,0,1-2.85,2H14.25Z"/><path class="cls-2" d="M98.34,132.1a5.62,5.62,0,0,1,5.21,4.39,3.87,3.87,0,0,1-.85,3.17,5.28,5.28,0,0,1-2.66,2H14.27a4.66,4.66,0,0,1-2.46-1.79A3.92,3.92,0,0,1,11,136.6a5.59,5.59,0,0,1,5-4.5H98.34m0-.47H16a6.07,6.07,0,0,0-5.44,4.87c-.69,3.13,2.62,5.54,3.72,5.59h85.81c1.1-.05,4.66-2.57,4-5.7A6.12,6.12,0,0,0,98.34,131.63Z"/><path class="cls-7" d="M24.27,53.42a10.09,10.09,0,0,1-4.83-3.26,3.76,3.76,0,0,1-.92-3.06,6.09,6.09,0,0,1,5.21-5.35H90A6.06,6.06,0,0,1,95.41,47a3.66,3.66,0,0,1-.88,3,10,10,0,0,1-4.87,3.23H56c-8.68,0-21,.13-27.55.2l-4.15,0Z"/><path class="cls-2" d="M90,42a5.83,5.83,0,0,1,5.21,5,3.42,3.42,0,0,1-.84,2.8,9.93,9.93,0,0,1-4.67,3.13H56c-8.68,0-21,.13-27.55.2l-4.19,0A10,10,0,0,1,19.63,50a3.57,3.57,0,0,1-.88-2.88,5.85,5.85,0,0,1,5-5.16H90m0-.47H23.73a6.32,6.32,0,0,0-5.44,5.55c-.7,3.56,4.87,6.53,6,6.59h.07c1.42,0,20-.23,31.7-.24H89.67c1.1-.06,6.67-2.92,6-6.49A6.32,6.32,0,0,0,90,41.51Z"/><polygon class="cls-3" points="19.77 129.48 26.87 55.23 86.75 55.23 93.84 129.48 19.77 129.48"/><path class="cls-2" d="M86.54,55.47l7,73.78H20l7-73.78H86.54M87,55H26.65l-7.13,74.72H94.1Z"/><path class="cls-4" d="M1.2,212.27A58.26,58.26,0,0,1,3,205.17c.9-2.45,4.05-5,4.08-5l99.51,0c-.06,0,3.32,3.49,4.09,5.78.67,2,1.38,5.28,1.58,6.26Z"/><path class="cls-2" d="M106.37,200.47c.65.67,3.39,3.61,4.06,5.62.62,1.82,1.26,4.72,1.52,5.94H1.49a57,57,0,0,1,1.71-6.78c.78-2.11,3.29-4.29,3.88-4.78h99.29m.2-.47H6.91s-3.22,2.54-4.15,5.09A62.29,62.29,0,0,0,.92,212.5H112.53s-.85-4.16-1.65-6.56S106.57,200,106.57,200Z"/><path class="cls-5" d="M7.67,198c-5.41-8.13-7.89-16.5-7.36-24.86.43-7,5.76-14.73,10.46-21.5,1.9-2.73,3.7-5.32,5-7.6H100c1,1.63,2,3.33,3.09,5.08,4.6,7.43,9.81,15.84,10.25,24s-2.08,16.68-7.51,24.86Z"/><path class="cls-2" d="M99.85,144.3c.94,1.6,2,3.24,3,5,4.58,7.4,9.78,15.78,10.22,23.9s-2,16.51-7.41,24.62H7.8C2.46,189.73,0,181.45.54,173.17c.43-7,5.74-14.63,10.43-21.38,1.87-2.69,3.63-5.23,4.91-7.49h84m.27-.47H15.6C11.27,151.65.69,163.07.07,173.14s3.08,18.54,7.47,25.12H106c4.38-6.58,8.15-15.19,7.62-25.12C113,162.93,105.12,152.43,100.12,143.83Z"/><path class="cls-6" d="M14.25,141.85A4.78,4.78,0,0,1,11.62,140a4.16,4.16,0,0,1-.87-3.42A5.86,5.86,0,0,1,16,131.87H98.34a5.87,5.87,0,0,1,5.44,4.56,4.11,4.11,0,0,1-.89,3.37,5.31,5.31,0,0,1-2.85,2H14.25Z"/><path class="cls-2" d="M98.34,132.1a5.62,5.62,0,0,1,5.21,4.39,3.87,3.87,0,0,1-.85,3.17,5.28,5.28,0,0,1-2.66,2H14.27a4.66,4.66,0,0,1-2.46-1.79A3.92,3.92,0,0,1,11,136.6a5.59,5.59,0,0,1,5-4.5H98.34m0-.47H16a6.07,6.07,0,0,0-5.44,4.87c-.69,3.13,2.62,5.54,3.72,5.59h85.81c1.1-.05,4.66-2.57,4-5.7A6.12,6.12,0,0,0,98.34,131.63Z"/><path class="cls-7" d="M24.27,53.42a10.09,10.09,0,0,1-4.83-3.26,3.76,3.76,0,0,1-.92-3.06,6.09,6.09,0,0,1,5.21-5.35H90A6.06,6.06,0,0,1,95.41,47a3.66,3.66,0,0,1-.88,3,10,10,0,0,1-4.87,3.23H56c-8.68,0-21,.13-27.55.2l-4.15,0Z"/><path class="cls-2" d="M90,42a5.83,5.83,0,0,1,5.21,5,3.42,3.42,0,0,1-.84,2.8,9.93,9.93,0,0,1-4.67,3.13H56c-8.68,0-21,.13-27.55.2l-4.19,0A10,10,0,0,1,19.63,50a3.57,3.57,0,0,1-.88-2.88,5.85,5.85,0,0,1,5-5.16H90m0-.47H23.73a6.32,6.32,0,0,0-5.44,5.55c-.7,3.56,4.87,6.53,6,6.59h.07c1.42,0,20-.23,31.7-.24H89.67c1.1-.06,6.67-2.92,6-6.49A6.32,6.32,0,0,0,90,41.51Z"/></g></g></svg>